%TF.GenerationSoftware,KiCad,Pcbnew,9.0.6*%
%TF.CreationDate,2025-12-30T10:18:46-05:00*%
%TF.ProjectId,HackClub MacroPad Project,4861636b-436c-4756-9220-4d6163726f50,rev?*%
%TF.SameCoordinates,Original*%
%TF.FileFunction,Copper,L2,Bot*%
%TF.FilePolarity,Positive*%
%FSLAX46Y46*%
G04 Gerber Fmt 4.6, Leading zero omitted, Abs format (unit mm)*
G04 Created by KiCad (PCBNEW 9.0.6) date 2025-12-30 10:18:46*
%MOMM*%
%LPD*%
G01*
G04 APERTURE LIST*
G04 Aperture macros list*
%AMRoundRect*
0 Rectangle with rounded corners*
0 $1 Rounding radius*
0 $2 $3 $4 $5 $6 $7 $8 $9 X,Y pos of 4 corners*
0 Add a 4 corners polygon primitive as box body*
4,1,4,$2,$3,$4,$5,$6,$7,$8,$9,$2,$3,0*
0 Add four circle primitives for the rounded corners*
1,1,$1+$1,$2,$3*
1,1,$1+$1,$4,$5*
1,1,$1+$1,$6,$7*
1,1,$1+$1,$8,$9*
0 Add four rect primitives between the rounded corners*
20,1,$1+$1,$2,$3,$4,$5,0*
20,1,$1+$1,$4,$5,$6,$7,0*
20,1,$1+$1,$6,$7,$8,$9,0*
20,1,$1+$1,$8,$9,$2,$3,0*%
G04 Aperture macros list end*
%TA.AperFunction,ComponentPad*%
%ADD10C,2.200000*%
%TD*%
%TA.AperFunction,ComponentPad*%
%ADD11RoundRect,0.250000X-0.550000X-0.550000X0.550000X-0.550000X0.550000X0.550000X-0.550000X0.550000X0*%
%TD*%
%TA.AperFunction,ComponentPad*%
%ADD12C,1.600000*%
%TD*%
%TA.AperFunction,ComponentPad*%
%ADD13R,1.700000X1.700000*%
%TD*%
%TA.AperFunction,ComponentPad*%
%ADD14O,1.700000X1.700000*%
%TD*%
%TA.AperFunction,ComponentPad*%
%ADD15C,1.524000*%
%TD*%
%TA.AperFunction,ComponentPad*%
%ADD16R,2.000000X2.000000*%
%TD*%
%TA.AperFunction,ComponentPad*%
%ADD17C,2.000000*%
%TD*%
%TA.AperFunction,ComponentPad*%
%ADD18R,3.200000X2.000000*%
%TD*%
%TA.AperFunction,Conductor*%
%ADD19C,0.200000*%
%TD*%
G04 APERTURE END LIST*
D10*
%TO.P,SW3,1,1*%
%TO.N,C1*%
X116840000Y-121126250D03*
%TO.P,SW3,2,2*%
%TO.N,Net-(D3-A)*%
X110490000Y-123666250D03*
%TD*%
D11*
%TO.P,D2,1,K*%
%TO.N,R1*%
X165190000Y-103000000D03*
D12*
%TO.P,D2,2,A*%
%TO.N,Net-(D2-A)*%
X172810000Y-103000000D03*
%TD*%
D13*
%TO.P,J1,1,Pin_1*%
%TO.N,GND*%
X141440000Y-86792500D03*
D14*
%TO.P,J1,2,Pin_2*%
%TO.N,VCC*%
X141440000Y-89332500D03*
%TO.P,J1,3,Pin_3*%
%TO.N,SCL*%
X141440000Y-91872500D03*
%TO.P,J1,4,Pin_4*%
%TO.N,SDA*%
X141440000Y-94412500D03*
%TD*%
D10*
%TO.P,SW1,1,1*%
%TO.N,C1*%
X116840000Y-102076250D03*
%TO.P,SW1,2,2*%
%TO.N,Net-(D6-A)*%
X110490000Y-104616250D03*
%TD*%
D11*
%TO.P,D6,1,K*%
%TO.N,ROW2*%
X165190000Y-127000000D03*
D12*
%TO.P,D6,2,A*%
%TO.N,Net-(D6-A)*%
X172810000Y-127000000D03*
%TD*%
D10*
%TO.P,SW4,1,1*%
%TO.N,C3*%
X154940000Y-121126250D03*
%TO.P,SW4,2,2*%
%TO.N,Net-(D5-A)*%
X148590000Y-123666250D03*
%TD*%
D11*
%TO.P,D3,1,K*%
%TO.N,R1*%
X165190000Y-109000000D03*
D12*
%TO.P,D3,2,A*%
%TO.N,Net-(D3-A)*%
X172810000Y-109000000D03*
%TD*%
D10*
%TO.P,SW2,1,1*%
%TO.N,C2*%
X135890000Y-121126250D03*
%TO.P,SW2,2,2*%
%TO.N,Net-(D2-A)*%
X129540000Y-123666250D03*
%TD*%
D15*
%TO.P,U1,1,GPIO26/ADC0/A0*%
%TO.N,C1*%
X146925000Y-82840000D03*
%TO.P,U1,2,GPIO27/ADC1/A1*%
%TO.N,C2*%
X146925000Y-85380000D03*
%TO.P,U1,3,GPIO28/ADC2/A2*%
%TO.N,C3*%
X146925000Y-87920000D03*
%TO.P,U1,4,GPIO29/ADC3/A3*%
%TO.N,R_SW*%
X146925000Y-90460000D03*
%TO.P,U1,5,GPIO6/SDA*%
%TO.N,SDA*%
X146925000Y-93000000D03*
%TO.P,U1,6,GPIO7/SCL*%
%TO.N,SCL*%
X146925000Y-95540000D03*
%TO.P,U1,7,GPIO0/TX*%
%TO.N,LED*%
X146925000Y-98080000D03*
%TO.P,U1,8,GPIO1/RX*%
%TO.N,ROW2*%
X162165000Y-98080000D03*
%TO.P,U1,9,GPIO2/SCK*%
%TO.N,R1*%
X162165000Y-95540000D03*
%TO.P,U1,10,GPIO4/MISO*%
%TO.N,R_B*%
X162165000Y-93000000D03*
%TO.P,U1,11,GPIO3/MOSI*%
%TO.N,R_A*%
X162165000Y-90460000D03*
%TO.P,U1,12,3V3*%
%TO.N,unconnected-(U1-3V3-Pad12)*%
X162165000Y-87920000D03*
%TO.P,U1,13,GND*%
%TO.N,GND*%
X162165000Y-85380000D03*
%TO.P,U1,14,VBUS*%
%TO.N,VCC*%
X162165000Y-82840000D03*
%TD*%
D11*
%TO.P,D5,1,K*%
%TO.N,R1*%
X165190000Y-121000000D03*
D12*
%TO.P,D5,2,A*%
%TO.N,Net-(D5-A)*%
X172810000Y-121000000D03*
%TD*%
D16*
%TO.P,SW6,A,A*%
%TO.N,R_A*%
X145150000Y-107037500D03*
D17*
%TO.P,SW6,B,B*%
%TO.N,R_B*%
X145150000Y-112037500D03*
%TO.P,SW6,C,C*%
%TO.N,GND*%
X145150000Y-109537500D03*
D18*
%TO.P,SW6,MP*%
%TO.N,N/C*%
X152650000Y-103937500D03*
X152650000Y-115137500D03*
D17*
%TO.P,SW6,S1,S1*%
%TO.N,GND*%
X159650000Y-112037500D03*
%TO.P,SW6,S2,S2*%
%TO.N,R_SW*%
X159650000Y-107037500D03*
%TD*%
D10*
%TO.P,SW5,1,1*%
%TO.N,C2*%
X135890000Y-102076250D03*
%TO.P,SW5,2,2*%
%TO.N,Net-(D4-A)*%
X129540000Y-104616250D03*
%TD*%
D11*
%TO.P,D4,1,K*%
%TO.N,ROW2*%
X165190000Y-115000000D03*
D12*
%TO.P,D4,2,A*%
%TO.N,Net-(D4-A)*%
X172810000Y-115000000D03*
%TD*%
D19*
%TO.N,GND*%
X162605310Y-81777000D02*
X163228000Y-82399690D01*
X159650000Y-112037500D02*
X157150000Y-109537500D01*
X146455500Y-81777000D02*
X162605310Y-81777000D01*
X141440000Y-86792500D02*
X146455500Y-81777000D01*
X163228000Y-84317000D02*
X162165000Y-85380000D01*
X163228000Y-82399690D02*
X163228000Y-84317000D01*
X157150000Y-109537500D02*
X145150000Y-109537500D01*
%TO.N,Net-(D2-A)*%
X174713000Y-127788250D02*
X174713000Y-104903000D01*
X143081530Y-123666250D02*
X148373530Y-128958250D01*
X129540000Y-123666250D02*
X143081530Y-123666250D01*
X148373530Y-128958250D02*
X173543000Y-128958250D01*
X173543000Y-128958250D02*
X174713000Y-127788250D01*
X174713000Y-104903000D02*
X172810000Y-103000000D01*
%TO.N,R1*%
X164089000Y-119899000D02*
X165190000Y-121000000D01*
X165190000Y-109000000D02*
X164089000Y-110101000D01*
X165190000Y-103000000D02*
X165190000Y-109000000D01*
X164089000Y-110101000D02*
X164089000Y-119899000D01*
%TO.N,Net-(D3-A)*%
X173709100Y-129359250D02*
X114071470Y-129359250D01*
X175114000Y-127954350D02*
X173709100Y-129359250D01*
X166291000Y-102481000D02*
X166873000Y-101899000D01*
X172810000Y-109000000D02*
X166291000Y-102481000D01*
X166873000Y-101899000D02*
X173266050Y-101899000D01*
X114071470Y-129359250D02*
X110490000Y-125777780D01*
X110490000Y-125777780D02*
X110490000Y-123666250D01*
X175114000Y-103746950D02*
X175114000Y-127954350D01*
X173266050Y-101899000D02*
X175114000Y-103746950D01*
%TO.N,Net-(D4-A)*%
X172810000Y-115000000D02*
X172810000Y-116131370D01*
X160213500Y-122101000D02*
X163629000Y-118685500D01*
X129540000Y-90990880D02*
X129540000Y-104616250D01*
X139154880Y-81376000D02*
X129540000Y-90990880D01*
X172810000Y-116131370D02*
X166840370Y-122101000D01*
X163629000Y-82233590D02*
X162771410Y-81376000D01*
X166840370Y-122101000D02*
X160213500Y-122101000D01*
X162771410Y-81376000D02*
X139154880Y-81376000D01*
X163629000Y-118685500D02*
X163629000Y-82233590D01*
%TO.N,ROW2*%
X166291000Y-128101000D02*
X173266050Y-128101000D01*
X173266050Y-113899000D02*
X166291000Y-113899000D01*
X173911000Y-114543950D02*
X173266050Y-113899000D01*
X165190000Y-127000000D02*
X166291000Y-128101000D01*
X169869050Y-122502000D02*
X169869050Y-119639420D01*
X169869050Y-119639420D02*
X173911000Y-115597470D01*
X173911000Y-115597470D02*
X173911000Y-114543950D01*
X173266050Y-128101000D02*
X173911000Y-127456050D01*
X166291000Y-113899000D02*
X165190000Y-115000000D01*
X173911000Y-126543950D02*
X169869050Y-122502000D01*
X173911000Y-127456050D02*
X173911000Y-126543950D01*
%TO.N,Net-(D5-A)*%
X172810000Y-121000000D02*
X174312000Y-122502000D01*
X174312000Y-127622150D02*
X173376900Y-128557250D01*
X148590000Y-125721066D02*
X148590000Y-123666250D01*
X151426184Y-128557250D02*
X148590000Y-125721066D01*
X174312000Y-122502000D02*
X174312000Y-127622150D01*
X173376900Y-128557250D02*
X151426184Y-128557250D01*
%TO.N,Net-(D6-A)*%
X114431000Y-100675250D02*
X120090530Y-100675250D01*
X129415280Y-116632844D02*
X135309686Y-122527250D01*
X129415280Y-110000000D02*
X129415280Y-116632844D01*
X154518566Y-125000000D02*
X170810000Y-125000000D01*
X135309686Y-122527250D02*
X147747686Y-122527250D01*
X120090530Y-100675250D02*
X129415280Y-110000000D01*
X110490000Y-104616250D02*
X114431000Y-100675250D01*
X148009686Y-122265250D02*
X151783816Y-122265250D01*
X151783816Y-122265250D02*
X154518566Y-125000000D01*
X170810000Y-125000000D02*
X172810000Y-127000000D01*
X147747686Y-122527250D02*
X148009686Y-122265250D01*
%TO.N,SDA*%
X142852500Y-93000000D02*
X141440000Y-94412500D01*
X146925000Y-93000000D02*
X142852500Y-93000000D01*
%TO.N,SCL*%
X141701739Y-96301999D02*
X146163001Y-96301999D01*
X146163001Y-96301999D02*
X146925000Y-95540000D01*
X140289000Y-94889260D02*
X141701739Y-96301999D01*
X141440000Y-91872500D02*
X140289000Y-93023500D01*
X140289000Y-93023500D02*
X140289000Y-94889260D01*
%TO.N,R_B*%
X161102000Y-94063000D02*
X162165000Y-93000000D01*
X161102000Y-112425392D02*
X161102000Y-94063000D01*
X145150000Y-112037500D02*
X146451000Y-113338500D01*
X160188892Y-113338500D02*
X161102000Y-112425392D01*
X146451000Y-113338500D02*
X160188892Y-113338500D01*
%TO.N,R_SW*%
X159650000Y-103185000D02*
X146925000Y-90460000D01*
X159650000Y-107037500D02*
X159650000Y-103185000D01*
%TO.N,R_A*%
X143849000Y-112576392D02*
X143849000Y-108338500D01*
X160354992Y-113739500D02*
X145012108Y-113739500D01*
X163228000Y-110866492D02*
X160354992Y-113739500D01*
X163228000Y-91523000D02*
X163228000Y-110866492D01*
X145012108Y-113739500D02*
X143849000Y-112576392D01*
X143849000Y-108338500D02*
X145150000Y-107037500D01*
X162165000Y-90460000D02*
X163228000Y-91523000D01*
%TO.N,C2*%
X144123500Y-88181500D02*
X140963240Y-88181500D01*
X135890000Y-93254740D02*
X135890000Y-102076250D01*
X140963240Y-88181500D02*
X135890000Y-93254740D01*
X146925000Y-85380000D02*
X144123500Y-88181500D01*
X135890000Y-102076250D02*
X135890000Y-121126250D01*
%TO.N,C1*%
X116840000Y-102076250D02*
X116840000Y-121126250D01*
%TO.N,C3*%
X145862000Y-90900310D02*
X145862000Y-88983000D01*
X147448950Y-91551050D02*
X146512740Y-91551050D01*
X143448000Y-112742492D02*
X143448000Y-103060310D01*
X148000000Y-92102100D02*
X147448950Y-91551050D01*
X145862000Y-88983000D02*
X146925000Y-87920000D01*
X143448000Y-103060310D02*
X148000000Y-98508310D01*
X154940000Y-121126250D02*
X151831758Y-121126250D01*
X146512740Y-91551050D02*
X145862000Y-90900310D01*
X148000000Y-98508310D02*
X148000000Y-92102100D01*
X151831758Y-121126250D02*
X143448000Y-112742492D01*
%TD*%
M02*
