%TF.GenerationSoftware,KiCad,Pcbnew,9.0.6*%
%TF.CreationDate,2025-12-30T10:18:46-05:00*%
%TF.ProjectId,HackClub MacroPad Project,4861636b-436c-4756-9220-4d6163726f50,rev?*%
%TF.SameCoordinates,Original*%
%TF.FileFunction,Copper,L1,Top*%
%TF.FilePolarity,Positive*%
%FSLAX46Y46*%
G04 Gerber Fmt 4.6, Leading zero omitted, Abs format (unit mm)*
G04 Created by KiCad (PCBNEW 9.0.6) date 2025-12-30 10:18:46*
%MOMM*%
%LPD*%
G01*
G04 APERTURE LIST*
G04 Aperture macros list*
%AMRoundRect*
0 Rectangle with rounded corners*
0 $1 Rounding radius*
0 $2 $3 $4 $5 $6 $7 $8 $9 X,Y pos of 4 corners*
0 Add a 4 corners polygon primitive as box body*
4,1,4,$2,$3,$4,$5,$6,$7,$8,$9,$2,$3,0*
0 Add four circle primitives for the rounded corners*
1,1,$1+$1,$2,$3*
1,1,$1+$1,$4,$5*
1,1,$1+$1,$6,$7*
1,1,$1+$1,$8,$9*
0 Add four rect primitives between the rounded corners*
20,1,$1+$1,$2,$3,$4,$5,0*
20,1,$1+$1,$4,$5,$6,$7,0*
20,1,$1+$1,$6,$7,$8,$9,0*
20,1,$1+$1,$8,$9,$2,$3,0*%
G04 Aperture macros list end*
%ADD10C,0.300000*%
%TA.AperFunction,NonConductor*%
%ADD11C,0.300000*%
%TD*%
%TA.AperFunction,ComponentPad*%
%ADD12C,2.200000*%
%TD*%
%TA.AperFunction,ComponentPad*%
%ADD13RoundRect,0.250000X-0.550000X-0.550000X0.550000X-0.550000X0.550000X0.550000X-0.550000X0.550000X0*%
%TD*%
%TA.AperFunction,ComponentPad*%
%ADD14C,1.600000*%
%TD*%
%TA.AperFunction,ComponentPad*%
%ADD15R,1.700000X1.700000*%
%TD*%
%TA.AperFunction,ComponentPad*%
%ADD16O,1.700000X1.700000*%
%TD*%
%TA.AperFunction,SMDPad,CuDef*%
%ADD17R,1.600000X0.850000*%
%TD*%
%TA.AperFunction,SMDPad,CuDef*%
%ADD18RoundRect,0.152400X1.063600X0.609600X-1.063600X0.609600X-1.063600X-0.609600X1.063600X-0.609600X0*%
%TD*%
%TA.AperFunction,ComponentPad*%
%ADD19C,1.524000*%
%TD*%
%TA.AperFunction,SMDPad,CuDef*%
%ADD20RoundRect,0.152400X-1.063600X-0.609600X1.063600X-0.609600X1.063600X0.609600X-1.063600X0.609600X0*%
%TD*%
%TA.AperFunction,ComponentPad*%
%ADD21R,2.000000X2.000000*%
%TD*%
%TA.AperFunction,ComponentPad*%
%ADD22C,2.000000*%
%TD*%
%TA.AperFunction,ComponentPad*%
%ADD23R,3.200000X2.000000*%
%TD*%
%TA.AperFunction,Conductor*%
%ADD24C,0.200000*%
%TD*%
G04 APERTURE END LIST*
D10*
D11*
X188383082Y-189772257D02*
X189097368Y-189772257D01*
X188240225Y-190200828D02*
X188740225Y-188700828D01*
X188740225Y-188700828D02*
X189240225Y-190200828D01*
X189740224Y-189200828D02*
X189740224Y-190700828D01*
X189740224Y-189272257D02*
X189883082Y-189200828D01*
X189883082Y-189200828D02*
X190168796Y-189200828D01*
X190168796Y-189200828D02*
X190311653Y-189272257D01*
X190311653Y-189272257D02*
X190383082Y-189343685D01*
X190383082Y-189343685D02*
X190454510Y-189486542D01*
X190454510Y-189486542D02*
X190454510Y-189915114D01*
X190454510Y-189915114D02*
X190383082Y-190057971D01*
X190383082Y-190057971D02*
X190311653Y-190129400D01*
X190311653Y-190129400D02*
X190168796Y-190200828D01*
X190168796Y-190200828D02*
X189883082Y-190200828D01*
X189883082Y-190200828D02*
X189740224Y-190129400D01*
X191311653Y-190200828D02*
X191168796Y-190129400D01*
X191168796Y-190129400D02*
X191097367Y-190057971D01*
X191097367Y-190057971D02*
X191025939Y-189915114D01*
X191025939Y-189915114D02*
X191025939Y-189486542D01*
X191025939Y-189486542D02*
X191097367Y-189343685D01*
X191097367Y-189343685D02*
X191168796Y-189272257D01*
X191168796Y-189272257D02*
X191311653Y-189200828D01*
X191311653Y-189200828D02*
X191525939Y-189200828D01*
X191525939Y-189200828D02*
X191668796Y-189272257D01*
X191668796Y-189272257D02*
X191740225Y-189343685D01*
X191740225Y-189343685D02*
X191811653Y-189486542D01*
X191811653Y-189486542D02*
X191811653Y-189915114D01*
X191811653Y-189915114D02*
X191740225Y-190057971D01*
X191740225Y-190057971D02*
X191668796Y-190129400D01*
X191668796Y-190129400D02*
X191525939Y-190200828D01*
X191525939Y-190200828D02*
X191311653Y-190200828D01*
X192668796Y-190200828D02*
X192525939Y-190129400D01*
X192525939Y-190129400D02*
X192454510Y-189986542D01*
X192454510Y-189986542D02*
X192454510Y-188700828D01*
X193454510Y-190200828D02*
X193311653Y-190129400D01*
X193311653Y-190129400D02*
X193240224Y-189986542D01*
X193240224Y-189986542D02*
X193240224Y-188700828D01*
X194240224Y-190200828D02*
X194097367Y-190129400D01*
X194097367Y-190129400D02*
X194025938Y-190057971D01*
X194025938Y-190057971D02*
X193954510Y-189915114D01*
X193954510Y-189915114D02*
X193954510Y-189486542D01*
X193954510Y-189486542D02*
X194025938Y-189343685D01*
X194025938Y-189343685D02*
X194097367Y-189272257D01*
X194097367Y-189272257D02*
X194240224Y-189200828D01*
X194240224Y-189200828D02*
X194454510Y-189200828D01*
X194454510Y-189200828D02*
X194597367Y-189272257D01*
X194597367Y-189272257D02*
X194668796Y-189343685D01*
X194668796Y-189343685D02*
X194740224Y-189486542D01*
X194740224Y-189486542D02*
X194740224Y-189915114D01*
X194740224Y-189915114D02*
X194668796Y-190057971D01*
X194668796Y-190057971D02*
X194597367Y-190129400D01*
X194597367Y-190129400D02*
X194454510Y-190200828D01*
X194454510Y-190200828D02*
X194240224Y-190200828D01*
X195383081Y-189200828D02*
X195383081Y-190700828D01*
X195383081Y-189272257D02*
X195525939Y-189200828D01*
X195525939Y-189200828D02*
X195811653Y-189200828D01*
X195811653Y-189200828D02*
X195954510Y-189272257D01*
X195954510Y-189272257D02*
X196025939Y-189343685D01*
X196025939Y-189343685D02*
X196097367Y-189486542D01*
X196097367Y-189486542D02*
X196097367Y-189915114D01*
X196097367Y-189915114D02*
X196025939Y-190057971D01*
X196025939Y-190057971D02*
X195954510Y-190129400D01*
X195954510Y-190129400D02*
X195811653Y-190200828D01*
X195811653Y-190200828D02*
X195525939Y-190200828D01*
X195525939Y-190200828D02*
X195383081Y-190129400D01*
X197383082Y-190200828D02*
X197383082Y-189415114D01*
X197383082Y-189415114D02*
X197311653Y-189272257D01*
X197311653Y-189272257D02*
X197168796Y-189200828D01*
X197168796Y-189200828D02*
X196883082Y-189200828D01*
X196883082Y-189200828D02*
X196740224Y-189272257D01*
X197383082Y-190129400D02*
X197240224Y-190200828D01*
X197240224Y-190200828D02*
X196883082Y-190200828D01*
X196883082Y-190200828D02*
X196740224Y-190129400D01*
X196740224Y-190129400D02*
X196668796Y-189986542D01*
X196668796Y-189986542D02*
X196668796Y-189843685D01*
X196668796Y-189843685D02*
X196740224Y-189700828D01*
X196740224Y-189700828D02*
X196883082Y-189629400D01*
X196883082Y-189629400D02*
X197240224Y-189629400D01*
X197240224Y-189629400D02*
X197383082Y-189557971D01*
X198740225Y-190200828D02*
X198740225Y-188700828D01*
X198740225Y-190129400D02*
X198597367Y-190200828D01*
X198597367Y-190200828D02*
X198311653Y-190200828D01*
X198311653Y-190200828D02*
X198168796Y-190129400D01*
X198168796Y-190129400D02*
X198097367Y-190057971D01*
X198097367Y-190057971D02*
X198025939Y-189915114D01*
X198025939Y-189915114D02*
X198025939Y-189486542D01*
X198025939Y-189486542D02*
X198097367Y-189343685D01*
X198097367Y-189343685D02*
X198168796Y-189272257D01*
X198168796Y-189272257D02*
X198311653Y-189200828D01*
X198311653Y-189200828D02*
X198597367Y-189200828D01*
X198597367Y-189200828D02*
X198740225Y-189272257D01*
D12*
%TO.P,SW3,1,1*%
%TO.N,C1*%
X116840000Y-121126250D03*
%TO.P,SW3,2,2*%
%TO.N,Net-(D3-A)*%
X110490000Y-123666250D03*
%TD*%
D13*
%TO.P,D2,1,K*%
%TO.N,R1*%
X165190000Y-103000000D03*
D14*
%TO.P,D2,2,A*%
%TO.N,Net-(D2-A)*%
X172810000Y-103000000D03*
%TD*%
D15*
%TO.P,J1,1,Pin_1*%
%TO.N,GND*%
X141440000Y-86792500D03*
D16*
%TO.P,J1,2,Pin_2*%
%TO.N,VCC*%
X141440000Y-89332500D03*
%TO.P,J1,3,Pin_3*%
%TO.N,SCL*%
X141440000Y-91872500D03*
%TO.P,J1,4,Pin_4*%
%TO.N,SDA*%
X141440000Y-94412500D03*
%TD*%
D12*
%TO.P,SW1,1,1*%
%TO.N,C1*%
X116840000Y-102076250D03*
%TO.P,SW1,2,2*%
%TO.N,Net-(D6-A)*%
X110490000Y-104616250D03*
%TD*%
D17*
%TO.P,D1,1,DOUT*%
%TO.N,Net-(D1-DOUT)*%
X167250000Y-95125000D03*
%TO.P,D1,2,VSS*%
%TO.N,GND*%
X167250000Y-96875000D03*
%TO.P,D1,3,DIN*%
%TO.N,LED*%
X170750000Y-96875000D03*
%TO.P,D1,4,VDD*%
%TO.N,VCC*%
X170750000Y-95125000D03*
%TD*%
D13*
%TO.P,D6,1,K*%
%TO.N,ROW2*%
X165190000Y-127000000D03*
D14*
%TO.P,D6,2,A*%
%TO.N,Net-(D6-A)*%
X172810000Y-127000000D03*
%TD*%
D12*
%TO.P,SW4,1,1*%
%TO.N,C3*%
X154940000Y-121126250D03*
%TO.P,SW4,2,2*%
%TO.N,Net-(D5-A)*%
X148590000Y-123666250D03*
%TD*%
D17*
%TO.P,D7,1,DOUT*%
%TO.N,unconnected-(D7-DOUT-Pad1)*%
X170750000Y-134875000D03*
%TO.P,D7,2,VSS*%
%TO.N,GND*%
X170750000Y-133125000D03*
%TO.P,D7,3,DIN*%
%TO.N,Net-(D1-DOUT)*%
X167250000Y-133125000D03*
%TO.P,D7,4,VDD*%
%TO.N,VCC*%
X167250000Y-134875000D03*
%TD*%
D13*
%TO.P,D3,1,K*%
%TO.N,R1*%
X165190000Y-109000000D03*
D14*
%TO.P,D3,2,A*%
%TO.N,Net-(D3-A)*%
X172810000Y-109000000D03*
%TD*%
D12*
%TO.P,SW2,1,1*%
%TO.N,C2*%
X135890000Y-121126250D03*
%TO.P,SW2,2,2*%
%TO.N,Net-(D2-A)*%
X129540000Y-123666250D03*
%TD*%
D18*
%TO.P,U1,1,GPIO26/ADC0/A0*%
%TO.N,C1*%
X146090000Y-82840000D03*
D19*
X146925000Y-82840000D03*
D18*
%TO.P,U1,2,GPIO27/ADC1/A1*%
%TO.N,C2*%
X146090000Y-85380000D03*
D19*
X146925000Y-85380000D03*
D18*
%TO.P,U1,3,GPIO28/ADC2/A2*%
%TO.N,C3*%
X146090000Y-87920000D03*
D19*
X146925000Y-87920000D03*
D18*
%TO.P,U1,4,GPIO29/ADC3/A3*%
%TO.N,R_SW*%
X146090000Y-90460000D03*
D19*
X146925000Y-90460000D03*
D18*
%TO.P,U1,5,GPIO6/SDA*%
%TO.N,SDA*%
X146090000Y-93000000D03*
D19*
X146925000Y-93000000D03*
D18*
%TO.P,U1,6,GPIO7/SCL*%
%TO.N,SCL*%
X146090000Y-95540000D03*
D19*
X146925000Y-95540000D03*
D18*
%TO.P,U1,7,GPIO0/TX*%
%TO.N,LED*%
X146090000Y-98080000D03*
D19*
X146925000Y-98080000D03*
%TO.P,U1,8,GPIO1/RX*%
%TO.N,ROW2*%
X162165000Y-98080000D03*
D20*
X163000000Y-98080000D03*
D19*
%TO.P,U1,9,GPIO2/SCK*%
%TO.N,R1*%
X162165000Y-95540000D03*
D20*
X163000000Y-95540000D03*
D19*
%TO.P,U1,10,GPIO4/MISO*%
%TO.N,R_B*%
X162165000Y-93000000D03*
D20*
X163000000Y-93000000D03*
D19*
%TO.P,U1,11,GPIO3/MOSI*%
%TO.N,R_A*%
X162165000Y-90460000D03*
D20*
X163000000Y-90460000D03*
D19*
%TO.P,U1,12,3V3*%
%TO.N,unconnected-(U1-3V3-Pad12)*%
X162165000Y-87920000D03*
D20*
%TO.N,unconnected-(U1-3V3-Pad12)_1*%
X163000000Y-87920000D03*
D19*
%TO.P,U1,13,GND*%
%TO.N,GND*%
X162165000Y-85380000D03*
D20*
X163000000Y-85380000D03*
D19*
%TO.P,U1,14,VBUS*%
%TO.N,VCC*%
X162165000Y-82840000D03*
D20*
X163000000Y-82840000D03*
%TD*%
D13*
%TO.P,D5,1,K*%
%TO.N,R1*%
X165190000Y-121000000D03*
D14*
%TO.P,D5,2,A*%
%TO.N,Net-(D5-A)*%
X172810000Y-121000000D03*
%TD*%
D21*
%TO.P,SW6,A,A*%
%TO.N,R_A*%
X145150000Y-107037500D03*
D22*
%TO.P,SW6,B,B*%
%TO.N,R_B*%
X145150000Y-112037500D03*
%TO.P,SW6,C,C*%
%TO.N,GND*%
X145150000Y-109537500D03*
D23*
%TO.P,SW6,MP*%
%TO.N,N/C*%
X152650000Y-103937500D03*
X152650000Y-115137500D03*
D22*
%TO.P,SW6,S1,S1*%
%TO.N,GND*%
X159650000Y-112037500D03*
%TO.P,SW6,S2,S2*%
%TO.N,R_SW*%
X159650000Y-107037500D03*
%TD*%
D12*
%TO.P,SW5,1,1*%
%TO.N,C2*%
X135890000Y-102076250D03*
%TO.P,SW5,2,2*%
%TO.N,Net-(D4-A)*%
X129540000Y-104616250D03*
%TD*%
D13*
%TO.P,D4,1,K*%
%TO.N,ROW2*%
X165190000Y-115000000D03*
D14*
%TO.P,D4,2,A*%
%TO.N,Net-(D4-A)*%
X172810000Y-115000000D03*
%TD*%
D24*
%TO.N,VCC*%
X171750000Y-95125000D02*
X170750000Y-95125000D01*
X173911000Y-131791000D02*
X173911000Y-97286000D01*
X170750000Y-90590000D02*
X163000000Y-82840000D01*
X171851000Y-133851000D02*
X173911000Y-131791000D01*
X167250000Y-134875000D02*
X168274000Y-133851000D01*
X163000000Y-82840000D02*
X162165000Y-82840000D01*
X162165000Y-82840000D02*
X155672500Y-89332500D01*
X173911000Y-97286000D02*
X171750000Y-95125000D01*
X170750000Y-95125000D02*
X170750000Y-90590000D01*
X155672500Y-89332500D02*
X141440000Y-89332500D01*
X168274000Y-133851000D02*
X171851000Y-133851000D01*
%TO.N,GND*%
X165037500Y-112037500D02*
X166291000Y-113291000D01*
X163242630Y-85380000D02*
X162165000Y-85380000D01*
X171851000Y-96149000D02*
X171851000Y-99836500D01*
X159650000Y-112037500D02*
X165037500Y-112037500D01*
X166000000Y-131000000D02*
X168625000Y-131000000D01*
X168351000Y-90731000D02*
X168351000Y-95774000D01*
X167976000Y-96149000D02*
X171851000Y-96149000D01*
X163000000Y-85380000D02*
X168351000Y-90731000D01*
X168351000Y-95774000D02*
X167250000Y-96875000D01*
X168625000Y-131000000D02*
X170750000Y-133125000D01*
X166291000Y-113291000D02*
X166291000Y-130709000D01*
X167250000Y-96875000D02*
X167976000Y-96149000D01*
X171851000Y-99836500D02*
X159650000Y-112037500D01*
X166291000Y-130709000D02*
X166000000Y-131000000D01*
%TO.N,LED*%
X150942000Y-94063000D02*
X146925000Y-98080000D01*
X164937000Y-94063000D02*
X150942000Y-94063000D01*
X165000000Y-96736000D02*
X165000000Y-94000000D01*
X166264000Y-98000000D02*
X165000000Y-96736000D01*
X165000000Y-94000000D02*
X164937000Y-94063000D01*
X169625000Y-98000000D02*
X166264000Y-98000000D01*
X170750000Y-96875000D02*
X169625000Y-98000000D01*
%TO.N,Net-(D1-DOUT)*%
X144573000Y-97278374D02*
X144834374Y-97017000D01*
X152445310Y-91937000D02*
X166937000Y-91937000D01*
X144573000Y-98881626D02*
X144573000Y-97278374D01*
X147365310Y-97017000D02*
X152445310Y-91937000D01*
X157948000Y-123823000D02*
X157948000Y-101729900D01*
X167250000Y-133125000D02*
X157948000Y-123823000D01*
X167250000Y-92250000D02*
X167250000Y-95125000D01*
X166937000Y-91937000D02*
X167250000Y-92250000D01*
X144834374Y-97017000D02*
X147365310Y-97017000D01*
X157948000Y-101729900D02*
X147421274Y-101729900D01*
X147421274Y-101729900D02*
X144573000Y-98881626D01*
%TO.N,R1*%
X161102000Y-96603000D02*
X162165000Y-95540000D01*
X162165000Y-95540000D02*
X163000000Y-95540000D01*
X161102000Y-98912000D02*
X161102000Y-96603000D01*
X165190000Y-103000000D02*
X161102000Y-98912000D01*
%TO.N,ROW2*%
X158349000Y-112576392D02*
X158349000Y-111498608D01*
X165190000Y-115000000D02*
X160772608Y-115000000D01*
X160263500Y-110736500D02*
X166291000Y-104709000D01*
X160772608Y-115000000D02*
X158349000Y-112576392D01*
X166291000Y-102206000D02*
X162165000Y-98080000D01*
X158349000Y-111498608D02*
X159111108Y-110736500D01*
X166291000Y-104709000D02*
X166291000Y-102206000D01*
X159111108Y-110736500D02*
X160263500Y-110736500D01*
%TO.N,C1*%
X136076250Y-82840000D02*
X116840000Y-102076250D01*
X146925000Y-82840000D02*
X136076250Y-82840000D01*
%TD*%
M02*
