M48
; DRILL file {KiCad 9.0.6} date 2025-12-30T10:19:18-0500
; FORMAT={-:-/ absolute / metric / decimal}
; #@! TF.CreationDate,2025-12-30T10:19:18-05:00
; #@! TF.GenerationSoftware,Kicad,Pcbnew,9.0.6
; #@! TF.FileFunction,Plated,1,2,PTH
FMAT,2
METRIC
; #@! TA.AperFunction,Plated,PTH,ComponentDrill
T1C0.800
; #@! TA.AperFunction,Plated,PTH,ComponentDrill
T2C0.889
; #@! TA.AperFunction,Plated,PTH,ComponentDrill
T3C1.000
; #@! TA.AperFunction,Plated,PTH,ComponentDrill
T4C1.500
%
G90
G05
T1
X165.19Y-103.0
X165.19Y-109.0
X165.19Y-115.0
X165.19Y-121.0
X165.19Y-127.0
X172.81Y-103.0
X172.81Y-109.0
X172.81Y-115.0
X172.81Y-121.0
X172.81Y-127.0
T2
X146.925Y-82.84
X146.925Y-85.38
X146.925Y-87.92
X146.925Y-90.46
X146.925Y-93.0
X146.925Y-95.54
X146.925Y-98.08
X162.165Y-82.84
X162.165Y-85.38
X162.165Y-87.92
X162.165Y-90.46
X162.165Y-93.0
X162.165Y-95.54
X162.165Y-98.08
T3
X141.44Y-86.792
X141.44Y-89.332
X141.44Y-91.873
X141.44Y-94.412
X145.15Y-107.037
X145.15Y-109.537
X145.15Y-112.037
X159.65Y-107.037
X159.65Y-112.037
T4
X110.49Y-104.616
X110.49Y-123.666
X116.84Y-102.076
X116.84Y-121.126
X129.54Y-104.616
X129.54Y-123.666
X135.89Y-102.076
X135.89Y-121.126
X148.59Y-123.666
X154.94Y-121.126
T4
G00X152.0Y-103.938
M15
G01X153.3Y-103.938
M16
G05
G00X152.0Y-115.137
M15
G01X153.3Y-115.137
M16
G05
M30
